 http://img836.imageshack.us/img836/6816/uninhabited2010.jpg

Country.......: Australia
Genre.........: Horror, Thriller
Date release..: 05.2010 [World]
Director......: Bill Bennett
Writers.......: Bill Bennett
Duration......: 84 min.
More..........: http://www.imdb.com/title/tt1459013
Trailer.......: http://www.imdb.com/video/wab/vi2931295769
Trailer.......:

Pilot :
A young couple go to a remote and deserted coral island for a camping holiday, only to find that the island is inhabited by a ghost seeking retribution for a past outrage. 

Cats :
Geraldine Hakewill   	 ...  	Beth
Billy Milionis 	... 	Spiro
Bob Baines 	... 	Jackson
Henry James 	... 	Harry
Tasia Zalar 	... 	Coral
Terry Siourounis 	... 	Elias 

Data Technical :
!!! SAMPLE !!!
Audio.....: English
Subtitles.: None
Format                           : AVI
Format/Info                      : Audio Video Interleave
File size                        : 700 MiB
Duration                         : 1h 23mn
Overall bit rate                 : 1 169 Kbps
Writing application              : VirtualDubMod 1.5.10.2 (build 2540/release)
Writing library                  : VirtualDubMod build 2540/release
Video
ID                               : 0
Format                           : MPEG-4 Visual
Format profile                   : Advanced Simple@L5
Format settings, BVOP            : Yes
Format settings, QPel            : No
Format settings, GMC             : No warppoints
Format settings, Matrix          : Default (H.263)
Codec ID                         : XVID
Codec ID/Hint                    : XviD
Duration                         : 1h 23mn
Bit rate                         : 1 011 Kbps
Width                            : 624 pixels
Height                           : 352 pixels
Display aspect ratio             : 16:9
Frame rate                       : 25.000 fps
Color space                      : YUV
Chroma subsampling               : 4:2:0
Bit depth                        : 8 bits
Scan type                        : Progressive
Bits/(Pixel*Frame)               : 0.184
Stream size                      : 606 MiB (87%)
Writing library                  : XviD 64
Audio
ID                               : 1
Format                           : MPEG Audio
Format version                   : Version 1
Format profile                   : Layer 3
Mode                             : Joint stereo
Codec ID                         : 55
Codec ID/Hint                    : MP3
Duration                         : 1h 23mn
Bit rate mode                    : Variable
Bit rate                         : 144 Kbps
Channel(s)                       : 2 channels
Sampling rate                    : 48.0 KHz
Stream size                      : 86.5 MiB (12%)
Alignment                        : Aligned on interleaves
Interleave, duration             : 24 ms (0.60 video frame)
Interleave, preload duration     : 151 ms
Writing library                  : LAME3.90 
Encoding settings                : -m j -V 0 -q 0 -lowpass 19.5 --vbr-new

Screen : 
http://img849.imageshack.us/img849/213/uninhabited2010s1.jpg 
http://img40.imageshack.us/img40/2812/uninhabited2010s2.jpg 
http://img825.imageshack.us/img825/7615/uninhabited2010s3.jpg 
http://img15.imageshack.us/img15/3406/uninhabited2010s4.jpg 
http://img690.imageshack.us/img690/5742/uninhabited2010s5.jpg